<svg width="240px" height="54px" viewBox="0 0 120 27" version="1.1" xmlns="http://www.w3.org/2000/svg" xmlns:xlink="http://www.w3.org/1999/xlink">
    <g id="Page-1" stroke="none" stroke-width="1" fill="none" fill-rule="evenodd">
        <g id="page" transform="translate(-382.000000, -14.000000)">
            <g id="Header">
                <g id="Group-10" transform="translate(382.000000, 7.000000)">
                    <g id="Logo-2" transform="translate(0.000000, 7.000000)">
                        <g id="Logo">
                            <g id="Group-18" transform="translate(0.000000, 0.208581)">
                                <path d="M118.184253,24.3106127 C117.612016,24.3106127 117.147246,23.8411677 117.147246,23.2749014 C117.147246,22.7028258 117.612016,22.23919 118.184253,22.23919 C118.756768,22.23919 119.22126,22.7028258 119.22126,23.2749014 C119.22126,23.8411677 118.756768,24.3106127 118.184253,24.3106127 L118.184253,24.3106127 Z M118.184253,22.0502502 C117.503717,22.0502502 116.953084,22.5952158 116.953084,23.2749014 C116.953084,23.9545869 117.503717,24.4887639 118.184253,24.4887639 C118.864789,24.4887639 119.415699,23.9545869 119.415699,23.2749014 C119.415699,22.5952158 118.864789,22.0502502 118.184253,22.0502502 L118.184253,22.0502502 Z M117.952145,23.1830595 L117.952145,22.7891351 L118.178714,22.7891351 C118.308617,22.7891351 118.454584,22.8270337 118.454584,22.9780749 C118.454584,23.1454375 118.292552,23.1830595 118.152124,23.1830595 L117.952145,23.1830595 Z M118.702757,22.9836076 C118.702757,22.6867811 118.449045,22.5788945 118.189793,22.5788945 L117.703696,22.5788945 L117.703696,23.959843 L117.952145,23.959843 L117.952145,23.382788 L118.130519,23.382788 L118.454584,23.959843 L118.756768,23.959843 L118.384232,23.355678 C118.578671,23.3125234 118.702757,23.1830595 118.702757,22.9836076 L118.702757,22.9836076 Z" id="Fill-8" fill="#FFFFFF"></path>
                                <path d="M88.4869043,10.7874979 L85.5714295,10.7874979 L85.5714295,13.7784464 L83.7616525,13.7784464 L83.7616525,16.1411629 L85.5714295,16.1411629 L85.5714295,20.8511045 C85.5714295,22.5014928 85.9738791,24.721467 89.1541453,24.721467 C89.7751309,24.721467 90.5598108,24.5953227 91.0265194,24.4180014 L90.954505,22.1053553 C90.6584151,22.2035598 90.2030626,22.3258313 89.6576921,22.3258313 C88.7937964,22.3258313 88.4869043,21.7200065 88.4869043,20.8295271 L88.4869043,16.1411629 L91.0724978,16.1411629 L91.0724978,13.7784464 L88.4869043,13.7784464 L88.4869043,10.7874979 Z M111.201073,18.8065151 L115.049688,13.7784464 L111.602969,13.7784464 L109.395451,16.8487883 L107.249976,13.7784464 L103.671138,13.7784464 L107.542465,18.8070684 L103.198336,24.4805203 L106.731196,24.4805203 L109.34975,20.8483381 L111.947807,24.4805203 L115.568192,24.4805203 L111.201073,18.8065151 Z M77.0476957,22.2572265 C75.118264,22.2572265 74.2391345,20.613754 74.2391345,19.086467 C74.2391345,17.5802041 75.118264,15.9588622 77.0476957,15.9588622 C78.9771273,15.9588622 79.8559799,17.5802041 79.8559799,19.086467 C79.8559799,20.613754 78.9771273,22.2572265 77.0476957,22.2572265 L77.0476957,22.2572265 Z M77.0476957,13.4771938 C73.681023,13.4771938 71.2375194,15.8363141 71.2375194,19.086467 C71.2375194,22.4500392 73.7353108,24.8105426 77.0476957,24.8105426 C80.3598036,24.8105426 82.857595,22.4273553 82.857595,19.086467 C82.857595,15.8363141 80.4140914,13.4771938 77.0476957,13.4771938 L77.0476957,13.4771938 Z M99.629746,19.9473467 C99.629746,21.533833 98.731782,22.529156 97.1014871,22.529156 C96.4954583,22.529156 95.4124727,22.3465787 95.4124727,21.3852814 C95.4124727,20.3523364 96.7070698,19.7160821 99.2347748,19.7160821 L99.629746,19.7160821 L99.629746,19.9473467 Z M97.6618144,13.4771938 C95.959505,13.4771938 94.2294978,14.1637952 93.0714511,15.2346388 L94.5890158,16.9309481 C95.2861705,16.2346646 96.4838252,15.7939893 97.4463252,15.7939893 C98.5016129,15.7939893 99.5773971,16.3212505 99.5773971,17.5802041 L99.5773971,17.7677608 C96.4688683,17.7835289 92.5194331,18.1575357 92.5194331,21.3459997 C92.5194331,23.6893519 94.561041,24.7386182 96.5843683,24.7386182 C97.8493288,24.7386182 98.9400698,24.0199275 99.6067568,23.2406543 L99.6729547,23.2406543 L99.6729547,24.4805203 L102.459081,24.4805203 L102.459081,18.010644 C102.459081,16.3176543 101.835879,13.4771938 97.6618144,13.4771938 L97.6618144,13.4771938 Z M52.8979475,15.4296646 L52.8541849,15.4296646 L52.8541849,13.7784464 L50.003246,13.7784464 L50.003246,24.4805203 L52.9622065,24.4805203 L52.9622065,18.7636371 C52.9622065,18.7376337 53.0937712,16.1497385 55.6566525,16.1497385 C55.869095,16.1497385 56.2358144,16.1804447 56.5756669,16.2653708 L56.5756669,13.5657162 C56.3682101,13.5139859 55.9064871,13.4771938 55.727282,13.4771938 C54.5634187,13.4771938 53.5693432,14.4304687 52.8979475,15.4296646 L52.8979475,15.4296646 Z M32.7064978,10.7874979 L29.791023,10.7874979 L29.791023,13.7784464 L27.981246,13.7784464 L27.981246,16.1411629 L29.791023,16.1411629 L29.791023,20.8511045 C29.791023,22.5014928 30.1934727,24.721467 33.3737388,24.721467 C33.9947245,24.721467 34.7794043,24.5953227 35.2461129,24.4180014 L35.1740986,22.1053553 C34.8780086,22.2035598 34.4229331,22.3258313 33.8772856,22.3258313 C33.0133899,22.3258313 32.7064978,21.7200065 32.7064978,20.8295271 L32.7064978,16.1411629 L35.2920914,16.1411629 L35.2920914,13.7784464 L32.7064978,13.7784464 L32.7064978,10.7874979 Z M44.5320914,19.6460942 C44.5320914,20.9036646 43.7111273,22.2572265 42.1813755,22.2572265 C41.0020014,22.2572265 40.3724295,21.4170942 40.3724295,19.6892488 L40.3724295,13.7784464 L37.413746,13.7784464 L37.413746,20.4206646 C37.413746,22.6306801 38.517782,24.7817729 41.4706489,24.7817729 C42.8630194,24.7817729 44.0293755,23.6871388 44.6171237,22.8790959 L44.6614403,22.8790959 L44.6614403,24.4805203 L47.4907748,24.4805203 L47.4907748,13.7784464 L44.5320914,13.7784464 L44.5320914,19.6460942 Z M63.9840086,22.2572265 C62.1991597,22.2572265 61.1325158,20.6668674 61.1325158,19.129345 C61.1325158,17.6045478 62.2227029,15.9588622 63.9840086,15.9588622 C65.8987604,15.9588622 66.8510122,17.5802041 66.8510122,19.086467 C66.8510122,20.6621646 65.8134511,22.2572265 63.9840086,22.2572265 L63.9840086,22.2572265 Z M64.5656633,13.4771938 C63.2123468,13.4771938 62.2155014,14.0680804 61.2743288,14.9491543 L61.2186561,14.9491543 L61.2186561,7.88119897 L58.2602496,7.88119897 L58.2602496,24.4805203 L61.0895842,24.4805203 L61.0895842,22.9678948 L61.1339007,22.9678948 C61.8008647,24.0605924 63.1264835,24.7817729 64.5011273,24.7817729 C67.5556453,24.7817729 69.8709079,22.3866904 69.8709079,19.086467 C69.8709079,15.8363141 67.5827892,13.4771938 64.5656633,13.4771938 L64.5656633,13.4771938 Z" id="Fill-10" fill="#FFFFFF"></path>
                                <path d="M0,14.1082474 C0,7.23282818 5.58056115,1.65979381 12.4640288,1.65979381 C19.3477734,1.65979381 24.9280576,7.23282818 24.9280576,14.1082474 C24.9280576,20.9831134 19.3477734,26.556701 12.4640288,26.556701 C5.58056115,26.556701 0,20.9831134 0,14.1082474" id="Fill-12" fill="#D52B1E"></path>
                                <path d="M9.68178058,18.6727911 C8.25091007,17.6412292 6.87405036,16.5394027 5.55563309,15.373121 C5.0717518,16.4345591 4.63661871,17.522554 4.24995683,18.6335093 C6.35222302,20.4152979 9.16244604,22.4554612 11.0921547,23.6034852 C13.5941007,17.1360986 17.4947878,12.917456 21.2309496,9.97298179 C20.7506691,8.95967766 20.1008777,8.04208832 19.3159209,7.25894227 C15.335464,10.312133 12.0333273,14.2046261 9.68178058,18.6727911" id="Fill-14" fill="#FFFFFF"></path>
                                <path d="M38.2484482,3.62924983 L39.7765381,3.62924983 L39.7765381,7.87140619 L41.1395489,7.87140619 L41.1395489,3.62924983 L42.6676388,3.62924983 L42.6676388,2.42313299 L38.2484482,2.42313299 L38.2484482,3.62924983 Z M47.2737899,5.42099725 C47.2737899,6.14715704 46.8646928,6.89572405 46.001905,6.89572405 C45.1272072,6.89572405 44.9795777,6.09044742 44.9795777,5.4436811 L44.9795777,2.42645258 L43.6165669,2.42645258 L43.6165669,5.82930653 C43.6165669,6.94136838 44.2068079,8.02991649 45.6271532,8.02991649 C46.4331604,8.02991649 47.0810129,7.54249038 47.3189374,6.99780137 L47.3419266,6.99780137 L47.3419266,7.87140619 L48.6368007,7.87140619 L48.6368007,2.42645258 L47.2737899,2.42645258 L47.2737899,5.42099725 Z M50.031941,7.87140619 L51.3949518,7.87140619 L51.3949518,2.42645258 L50.031941,2.42645258 L50.031941,7.87140619 Z M40.457905,1.7132945 C40.9129806,1.7132945 41.2816388,1.34482027 41.2816388,0.890590034 C41.2816388,0.436359794 40.9129806,0.0681621993 40.457905,0.0681621993 C40.0033835,0.0681621993 39.6344482,0.436359794 39.6344482,0.890590034 C39.6344482,1.34482027 40.0033835,1.7132945 40.457905,1.7132945 L40.457905,1.7132945 Z M54.5594302,1.7132945 C55.0142288,1.7132945 55.3828871,1.34482027 55.3828871,0.890590034 C55.3828871,0.436359794 55.0142288,0.0681621993 54.5594302,0.0681621993 C54.1046317,0.0681621993 53.7359734,0.436359794 53.7359734,0.890590034 C53.7359734,1.34482027 54.1046317,1.7132945 54.5594302,1.7132945 L54.5594302,1.7132945 Z M52.3496964,2.42313299 L52.3496964,3.62924983 L53.8780633,3.62924983 L53.8780633,7.87140619 L55.2410741,7.87140619 L55.2410741,3.62924983 L56.7688871,3.62924983 L56.7688871,2.42313299 L52.3496964,2.42313299 Z M29.7745705,7.87140619 L31.1375813,7.87140619 L31.1375813,2.42645258 L29.7745705,2.42645258 L29.7745705,7.87140619 Z M35.543477,2.267389 C34.7374698,2.267389 34.0898942,2.75536838 33.8514158,3.29978076 L33.8287036,3.29978076 L33.8287036,2.42645258 L32.5343835,2.42645258 L32.5343835,7.87140619 L33.8968403,7.87140619 L33.8968403,4.87630825 C33.8968403,4.15070172 34.3059374,3.40158144 35.1687252,3.40158144 C36.043423,3.40158144 36.1913295,4.20741134 36.1913295,4.8536244 L36.1913295,7.87140619 L37.5540633,7.87140619 L37.5540633,4.46799897 C37.5540633,3.35649038 36.9635453,2.267389 35.543477,2.267389 L35.543477,2.267389 Z" id="Fill-16" fill="#FFFFFF"></path>
                            </g>
                        </g>
                    </g>
                </g>
            </g>
        </g>
    </g>
</svg>